<?xml version="1.0" encoding="UTF-8" standalone="no"?>
<svg
   xmlns:dc="http://purl.org/dc/elements/1.1/"
   xmlns:cc="http://creativecommons.org/ns#"
   xmlns:rdf="http://www.w3.org/1999/02/22-rdf-syntax-ns#"
   xmlns:svg="http://www.w3.org/2000/svg"
   xmlns="http://www.w3.org/2000/svg"
   viewBox="0 0 1333.3333 1533.1467"
   height="1533.1467"
   width="1333.3333"
   xml:space="preserve"
   id="svg2"
   version="1.1"><metadata
     id="metadata8"><rdf:RDF><cc:Work
         rdf:about=""><dc:format>image/svg+xml</dc:format><dc:type
           rdf:resource="http://purl.org/dc/dcmitype/StillImage" /></cc:Work></rdf:RDF></metadata><defs
     id="defs6"><clipPath
       id="clipPath18"
       clipPathUnits="userSpaceOnUse"><path
         id="path16"
         d="M 0,1149.861 H 1000 V 0 H 0 Z" /></clipPath></defs><g
     transform="matrix(1.3333333,0,0,-1.3333333,0,1533.1467)"
     id="g10"><g
       id="g12"><g
         clip-path="url(#clipPath18)"
         id="g14"><g
           transform="translate(298.4584,887.685)"
           id="g20"><path
             id="path22"
             style="fill:#1e3052;fill-opacity:1;fill-rule:nonzero;stroke:none"
             d="m 0,0 180.4,-441.516 h 33.964 c 4.652,0 7.834,4.696 6.11,9.016 L 28.175,49.369 c -1.377,3.452 -6.251,3.485 -7.675,0.052 z" /></g><g
           transform="translate(674.0665,935.4576)"
           id="g24"><path
             id="path26"
             style="fill:#1e3052;fill-opacity:1;fill-rule:nonzero;stroke:none"
             d="m 0,0 -124.593,-309.332 -26.761,66.45 129.916,313.084 -20.284,48.882 c -1.421,3.424 -6.28,3.401 -7.668,-0.037 l -124.03,-307.138 -124.526,308.965 c -1.387,3.441 -6.25,3.465 -7.67,0.037 l -20.879,-50.412 130.121,-315.31 22.076,-53.575 27.025,-65.628 17.059,-37.884 c 2.127,-4.725 8.871,-4.625 10.858,0.161 l 16.232,39.096 L 27.475,-47.75 7.671,0.038 C 6.25,3.466 1.386,3.442 0,0" /></g><g
           transform="translate(185.7926,242.5116)"
           id="g28"><path
             id="path30"
             style="fill:#1e3052;fill-opacity:1;fill-rule:nonzero;stroke:none"
             d="m 0,0 h -26.373 l -54.888,136.736 h 32.97 L -12.8,41.118 22.699,136.736 h 32.189 z" /></g><g
           transform="translate(295.3569,344.3367)"
           id="g32"><path
             id="path34"
             style="fill:#1e3052;fill-opacity:1;fill-rule:nonzero;stroke:none"
             d="m 0,0 -18.036,-44.026 h 36.072 z m 41.121,-100.855 -12.413,30.453 h -57.416 l -12.413,-30.453 H -71.57 l 58.19,136.737 h 27.541 l 58.182,-136.737 z" /></g><g
           transform="translate(383.8214,243.4821)"
           id="g36"><path
             id="path38"
             style="fill:#1e3052;fill-opacity:1;fill-rule:nonzero;stroke:none"
             d="M 0,0 V 135.766 H 29.868 V 27.154 H 97.564 V 0 Z" /></g><g
           transform="translate(501.8749,243.4821)"
           id="g40"><path
             id="path42"
             style="fill:#1e3052;fill-opacity:1;fill-rule:nonzero;stroke:none"
             d="m 0,0 v 135.766 h 102.413 v -26.57 H 29.675 V 81.655 H 93.681 V 55.081 H 29.675 V 26.57 H 103.38 V 0 Z" /></g><g
           transform="translate(689.4232,241.3476)"
           id="g44"><path
             id="path46"
             style="fill:#1e3052;fill-opacity:1;fill-rule:nonzero;stroke:none"
             d="M 0,0 C -36.465,0 -58.77,20.367 -58.77,60.321 V 137.9 h 29.868 V 61.098 c 0,-22.111 11.06,-33.557 29.289,-33.557 18.236,0 29.288,11.055 29.288,32.586 V 137.9 H 59.544 V 61.291 C 59.544,20.174 36.465,0 0,0" /></g><g
           transform="translate(861.1373,332.8943)"
           id="g48"><path
             id="path50"
             style="fill:#1e3052;fill-opacity:1;fill-rule:nonzero;stroke:none"
             d="M 0,0 C 0,12.8 -8.925,19.397 -23.472,19.397 H -53.148 V -19.59 h 30.263 C -8.345,-19.59 0,-11.833 0,-0.387 Z m -0.58,-89.412 -29.095,43.445 H -53.148 V -89.412 H -83.016 V 46.353 h 62.065 c 32.003,0 51.206,-16.871 51.206,-44.802 V 1.164 c 0,-21.918 -11.833,-35.688 -29.095,-42.088 l 33.171,-48.488 z" /></g><g
           transform="translate(379.9731,116.9807)"
           id="g52"><path
             id="path54"
             style="fill:#1e3052;fill-opacity:1;fill-rule:nonzero;stroke:none"
             d="m 0,0 -14.431,2.048 v 25.643 l 14.431,0 z m -27.594,-8.678 c -5.396,0 -10.352,0.863 -14.869,2.584 -4.519,1.722 -8.451,4.176 -11.798,7.362 -3.349,3.184 -5.948,6.922 -7.801,11.212 -1.852,4.291 -2.778,9.003 -2.778,14.139 0,5.134 0.926,9.848 2.778,14.138 1.853,4.291 4.469,8.028 7.85,11.214 3.379,3.183 7.344,5.638 11.895,7.361 4.549,1.722 9.555,2.584 15.016,2.584 6.045,0 11.488,-1.009 16.332,-3.022 4.842,-2.016 8.921,-4.942 12.237,-8.776 L -8.873,40.757 c -2.471,2.599 -5.168,4.534 -8.093,5.802 -2.925,1.267 -6.111,1.901 -9.555,1.901 -3.315,0 -6.338,-0.521 -9.068,-1.56 -2.73,-1.041 -5.087,-2.535 -7.069,-4.485 -1.984,-1.95 -3.51,-4.259 -4.583,-6.923 -1.072,-2.666 -1.609,-5.623 -1.609,-8.873 0,-3.185 0.537,-6.111 1.609,-8.775 1.073,-2.666 2.599,-4.99 4.583,-6.972 1.982,-1.983 4.322,-3.495 7.02,-4.534 2.697,-1.04 5.671,-1.56 8.922,-1.56 3.12,0 6.158,0.502 9.116,1.511 2.957,1.007 5.834,2.714 8.63,5.119 L 0,0 c -3.705,-2.796 -8.012,-4.94 -12.919,-6.436 -4.909,-1.494 -9.8,-2.242 -14.675,-2.242" /></g><g
           transform="translate(437.9878,109.4729)"
           id="g56"><path
             id="path58"
             style="fill:#1e3052;fill-opacity:1;fill-rule:nonzero;stroke:none"
             d="M 0,0 -17.063,24.767 H -0.195 L 17.063,0 Z m -27.594,24.182 -7.02,7.41 h 19.891 c 4.875,0 8.515,1.055 10.92,3.169 2.404,2.111 3.608,5.021 3.608,8.726 0,3.77 -1.204,6.695 -3.608,8.776 -2.405,2.08 -6.045,3.12 -10.92,3.12 h -19.891 l 7.02,7.508 z M -43.39,0 v 68.254 h 29.154 c 9.49,0 16.868,-2.194 22.133,-6.582 5.266,-4.388 7.898,-10.449 7.898,-18.185 0,-5.07 -1.203,-9.442 -3.607,-13.114 C 9.782,26.699 6.37,23.889 1.95,21.938 -2.471,19.988 -7.736,19.014 -13.846,19.014 h -20.768 l 7.02,6.923 V 0 Z" /></g><g
           transform="translate(499.3159,121.759)"
           id="g60"><path
             id="path62"
             style="fill:#1e3052;fill-opacity:1;fill-rule:nonzero;stroke:none"
             d="m 0,0 c 3.055,0 5.867,0.52 8.435,1.56 2.567,1.039 4.826,2.535 6.776,4.485 1.951,1.95 3.462,4.257 4.535,6.923 1.072,2.665 1.608,5.622 1.608,8.873 0,3.25 -0.536,6.207 -1.608,8.873 -1.073,2.664 -2.569,4.973 -4.486,6.923 -1.918,1.95 -4.177,3.444 -6.776,4.485 -2.601,1.039 -5.429,1.56 -8.484,1.56 -3.056,0 -5.867,-0.521 -8.434,-1.56 -2.568,-1.041 -4.827,-2.535 -6.776,-4.485 -1.951,-1.95 -3.462,-4.259 -4.534,-6.923 -1.073,-2.666 -1.609,-5.623 -1.609,-8.873 0,-3.186 0.536,-6.128 1.609,-8.824 1.072,-2.699 2.567,-5.022 4.485,-6.972 1.916,-1.95 4.176,-3.446 6.777,-4.485 C -5.884,0.52 -3.056,0 0,0 m 0.098,-13.456 c -5.397,0 -10.384,0.877 -14.967,2.633 -4.583,1.755 -8.548,4.224 -11.896,7.41 -3.348,3.184 -5.947,6.923 -7.8,11.213 -1.852,4.29 -2.779,8.971 -2.779,14.041 0,5.07 0.927,9.75 2.779,14.041 1.853,4.29 4.468,8.027 7.849,11.213 3.379,3.183 7.345,5.655 11.896,7.41 4.549,1.755 9.49,2.633 14.82,2.633 5.396,0 10.351,-0.878 14.871,-2.633 4.516,-1.755 8.449,-4.227 11.797,-7.41 3.347,-3.186 5.963,-6.908 7.849,-11.164 1.885,-4.259 2.828,-8.956 2.828,-14.09 0,-5.07 -0.943,-9.768 -2.828,-14.09 C 32.631,3.428 30.015,-0.31 26.668,-3.462 23.32,-6.615 19.387,-9.068 14.871,-10.823 10.351,-12.579 5.427,-13.456 0.098,-13.456" /></g><g
           transform="translate(578.8799,108.303)"
           id="g64"><path
             id="path66"
             style="fill:#1e3052;fill-opacity:1;fill-rule:nonzero;stroke:none"
             d="m 0,0 c -9.687,0 -17.259,2.696 -22.719,8.093 -5.46,5.394 -8.19,13.097 -8.19,23.108 v 38.223 h 15.796 V 31.786 c 0,-6.5 1.331,-11.181 3.997,-14.04 2.665,-2.861 6.402,-4.29 11.214,-4.29 4.809,0 8.547,1.429 11.213,4.29 2.664,2.859 3.997,7.54 3.997,14.04 v 37.638 h 15.6 V 31.201 C 30.908,21.19 28.179,13.487 22.718,8.093 17.258,2.696 9.685,0 0,0" /></g><g
           transform="translate(641.1846,133.6545)"
           id="g68"><path
             id="path70"
             style="fill:#1e3052;fill-opacity:1;fill-rule:nonzero;stroke:none"
             d="M 0,0 -7.021,7.508 H 12.87 c 4.876,0 8.516,1.039 10.921,3.12 2.404,2.079 3.607,4.973 3.607,8.678 0,3.769 -1.203,6.694 -3.607,8.775 -2.405,2.08 -6.045,3.12 -10.921,3.12 H -7.021 L 0,38.709 Z m -15.796,-24.182 v 68.254 h 29.544 c 6.109,0 11.374,-0.992 15.796,-2.974 4.419,-1.984 7.832,-4.827 10.237,-8.532 2.405,-3.705 3.609,-8.126 3.609,-13.26 0,-5.071 -1.204,-9.458 -3.609,-13.163 C 37.376,2.438 33.963,-0.407 29.544,-2.39 25.122,-4.373 19.857,-5.363 13.748,-5.363 H -7.021 L 0,1.755 v -25.937 z" /></g></g></g></g></svg>